<?xml version="1.0" encoding="iso-8859-1"?>
<!-- Generator: Adobe Illustrator 19.0.0, SVG Export Plug-In . SVG Version: 6.00 Build 0)  -->
<svg version="1.1" id="Layer_1" xmlns="http://www.w3.org/2000/svg" xmlns:xlink="http://www.w3.org/1999/xlink" x="0px" y="0px"
	 viewBox="0 0 512 512" style="enable-background:new 0 0 512 512;" xml:space="preserve">
<rect x="256.768" y="176.939" style="fill:#FF9F99;" width="161.126" height="106.914"/>
<rect x="175.437" y="68.523" style="fill:#FFB7B2;" width="161.135" height="106.914"/>
<rect x="94.123" y="176.939" style="fill:#FF9F99;" width="161.126" height="106.914"/>
<g>
	<rect x="338.074" y="285.363" style="fill:#FF877F;" width="161.126" height="106.914"/>
	<rect x="175.437" y="285.363" style="fill:#FF877F;" width="161.135" height="106.914"/>
	<rect x="12.8" y="285.363" style="fill:#FF877F;" width="161.126" height="106.914"/>
</g>
<g>
	<path style="fill:#573A32;" d="M486.4,272.563h-56.021c0.034-0.529,0.307-0.973,0.307-1.51v-81.314c0-14.14-11.46-25.6-25.6-25.6
		h-56.021c0.034-0.529,0.307-0.973,0.307-1.51V81.314c0-14.14-11.46-25.6-25.6-25.6H188.237c-14.14,0-25.6,11.46-25.6,25.6v81.314
		c0,0.538,0.273,0.981,0.307,1.51h-56.021c-14.14,0-25.6,11.46-25.6,25.6v81.314c0,0.538,0.273,0.981,0.307,1.51H25.6
		c-14.14,0-25.6,11.46-25.6,25.6v81.314c0,14.14,11.46,25.6,25.6,25.6h460.8c14.14,0,25.6-11.46,25.6-25.6v-81.314
		C512,284.023,500.54,272.563,486.4,272.563z M405.077,189.739v81.314H269.551v-81.314H405.077z M188.237,81.314h135.535v81.314
		H188.237V81.314z M106.923,189.739h135.526v81.314H106.923V189.739z M161.126,379.486H25.6v-81.314h135.526V379.486z
		 M323.763,379.486H188.237v-81.314h135.535v81.314H323.763z M486.4,379.486H350.874v-81.314H486.4V379.486z"/>
	<path style="fill:#573A32;" d="M499.2,430.686H12.8c-7.074,0-12.8,5.726-12.8,12.8s5.726,12.8,12.8,12.8h486.4
		c7.074,0,12.8-5.726,12.8-12.8S506.274,430.686,499.2,430.686z"/>
</g>
<g>
</g>
<g>
</g>
<g>
</g>
<g>
</g>
<g>
</g>
<g>
</g>
<g>
</g>
<g>
</g>
<g>
</g>
<g>
</g>
<g>
</g>
<g>
</g>
<g>
</g>
<g>
</g>
<g>
</g>
</svg>
